<svg xmlns="http://www.w3.org/2000/svg" width="1600" height="2600" viewBox="0 0 1600 2600" fill="none"><defs>
 <linearGradient id="film" x1="0" y1="0" x2="1" y2=".8"><stop stop-color="#c4bed8" stop-opacity=".5"/><stop offset=".34" stop-color="#faf8ff" stop-opacity=".06"/><stop offset=".72" stop-color="#b9ccd8" stop-opacity=".35"/><stop offset="1" stop-color="#d8b8c1" stop-opacity=".48"/></linearGradient>
 <linearGradient id="paper" x2=".8" y2="1"><stop stop-color="#fbfaf3" stop-opacity=".94"/><stop offset="1" stop-color="#c9c8b4" stop-opacity=".4"/></linearGradient>
 <linearGradient id="emulsion" x2=".6" y2="1"><stop stop-color="#66716f" stop-opacity=".27"/><stop offset=".54" stop-color="#d4d4cf" stop-opacity=".12"/><stop offset="1" stop-color="#667177" stop-opacity=".32"/></linearGradient>
 <linearGradient id="nightglass" x2="1" y2="1"><stop stop-color="#394d71" stop-opacity=".45"/><stop offset=".55" stop-color="#1a2a49" stop-opacity=".12"/><stop offset="1" stop-color="#768596" stop-opacity=".12"/></linearGradient>
 <linearGradient id="river" x1="0" y1="0" x2="1" y2="1"><stop stop-color="#9aa9a1" stop-opacity=".02"/><stop offset=".4" stop-color="#869f98" stop-opacity=".23"/><stop offset="1" stop-color="#789398" stop-opacity=".06"/></linearGradient>
 <linearGradient id="crease"><stop stop-color="#6d6659" stop-opacity=".14"/><stop offset=".12" stop-color="#6d6659" stop-opacity=".01"/><stop offset=".9" stop-color="#fffdf6" stop-opacity=".18"/><stop offset="1" stop-color="#fffdf6" stop-opacity=".6"/></linearGradient>
 <filter id="shadow" x="-.3" y="-.3" width="1.6" height="1.6"><feGaussianBlur stdDeviation="11"/></filter>
 <filter id="soft" x="-.4" y="-.4" width="1.8" height="1.8"><feGaussianBlur stdDeviation="3"/></filter>
 <radialGradient id="lamp"><stop stop-color="#acc1e1" stop-opacity=".6"/><stop offset=".15" stop-color="#8195b8" stop-opacity=".28"/><stop offset="1" stop-color="#667ba8" stop-opacity="0"/></radialGradient>
 </defs><path d="M-150 21L359 71L325 847L-94 957Z" fill="#847d67" opacity=".09" filter="url(#shadow)"/>
    <path d="M-140 9L323 50L350 53L332 76L318 304L326 315L313 535L316 551L299 809L287 822L299 840L-112 938Z" fill="url(#paper)" stroke="#b1af98" stroke-opacity=".28"/>
    <path d="M-122 11L288 51L268 826L-91 899Z" fill="#faf9f0" fill-opacity=".32" stroke="#c7c6b2" stroke-opacity=".35"/>
    <path d="M259 51L288 51L268 826L238 834Z" fill="url(#crease)"/>
    <g fill="none" stroke="#b1a38a" stroke-opacity=".25"><path d="M47 125L41 818M112 119L98 815M176 113L156 800M232 113L212 773"/></g>
    <g fill="none" stroke="#929986" stroke-width="1" opacity=".42"><path d="M270 180Q307 188 316 177M265 331Q300 340 312 329M260 482Q295 491 304 480M252 636Q286 646 297 635M247 778Q280 787 291 776"/></g>
    <path d="M1238-54C1481 125 1563 311 1422 443S1138 680 1408 965L1569 1115L1737 1108C1522 861 1349 732 1546 507S1651 186 1369-83Z" fill="url(#river)"/>
    <path d="M1329-30C1520 146 1579 316 1439 453S1200 678 1446 973" fill="none" stroke="#8ba09a" stroke-opacity=".2"/>
    <path d="M-90 923C241 838 272 965 439 1001S695 925 731 1100" fill="none" stroke="#b9bbaa" stroke-opacity=".3"/>
    <g transform="translate(1378 214)"><circle r="105" fill="#fcfbef" fill-opacity=".48"/><path d="M-58-88A105 105 0 0 1 101 28" fill="none" stroke="#a7b09f" stroke-opacity=".38"/><circle r="115" fill="none" stroke="#b6c1ad" stroke-opacity=".19"/></g>
    <g opacity=".08" fill="#637166"><path d="M1504 393L1750 278L1750 913L1283 1140L1218 1112L1550 565Z"/><path d="M1414 799L1650 730L1650 760L1397 839Z"/></g><path d="M1495.0 493q-44 15-70 11m94-7q-34 14-54 12" fill="none" stroke="#8caaa3" stroke-opacity=".24" stroke-width=".8"/><path d="M1476.7 516q-44 15-70 11m94-7q-34 14-54 12" fill="none" stroke="#8caaa3" stroke-opacity=".24" stroke-width=".8"/><path d="M1460.1 539q-44 15-70 11m94-7q-34 14-54 12" fill="none" stroke="#8caaa3" stroke-opacity=".24" stroke-width=".8"/><path d="M1446.9 562q-44 15-70 11m94-7q-34 14-54 12" fill="none" stroke="#8caaa3" stroke-opacity=".24" stroke-width=".8"/><path d="M1438.3 585q-44 15-70 11m94-7q-34 14-54 12" fill="none" stroke="#8caaa3" stroke-opacity=".24" stroke-width=".8"/><path d="M1435.0 608q-44 15-70 11m94-7q-34 14-54 12" fill="none" stroke="#8caaa3" stroke-opacity=".24" stroke-width=".8"/><path d="M1437.5 631q-44 15-70 11m94-7q-34 14-54 12" fill="none" stroke="#8caaa3" stroke-opacity=".24" stroke-width=".8"/><path d="M1445.5 654q-44 15-70 11m94-7q-34 14-54 12" fill="none" stroke="#8caaa3" stroke-opacity=".24" stroke-width=".8"/><path d="M1458.1 677q-44 15-70 11m94-7q-34 14-54 12" fill="none" stroke="#8caaa3" stroke-opacity=".24" stroke-width=".8"/><path d="M1474.3 700q-44 15-70 11m94-7q-34 14-54 12" fill="none" stroke="#8caaa3" stroke-opacity=".24" stroke-width=".8"/><path d="M1492.5 723q-44 15-70 11m94-7q-34 14-54 12" fill="none" stroke="#8caaa3" stroke-opacity=".24" stroke-width=".8"/><path d="M1510.9 746q-44 15-70 11m94-7q-34 14-54 12" fill="none" stroke="#8caaa3" stroke-opacity=".24" stroke-width=".8"/><path d="M1527.8 769q-44 15-70 11m94-7q-34 14-54 12" fill="none" stroke="#8caaa3" stroke-opacity=".24" stroke-width=".8"/><path d="M1541.6 792q-44 15-70 11m94-7q-34 14-54 12" fill="none" stroke="#8caaa3" stroke-opacity=".24" stroke-width=".8"/><path d="M1550.9 815q-44 15-70 11m94-7q-34 14-54 12" fill="none" stroke="#8caaa3" stroke-opacity=".24" stroke-width=".8"/><path d="M1554.9 838q-44 15-70 11m94-7q-34 14-54 12" fill="none" stroke="#8caaa3" stroke-opacity=".24" stroke-width=".8"/><g transform="translate(125 809) rotate(-28) scale(0.7)" opacity=".42">
    <path d="M0 0C-23-37-40-89-8-148C21-120 39-65 0 0Z" fill="#949d7e" fill-opacity=".17" stroke="#949d7e" stroke-width=".7"/>
    <path d="M0 18Q-8-63-8-137M-5-31L-23-49M-7-51L14-81M-8-81L-22-96M-8-99L3-118" fill="none" stroke="#949d7e" stroke-width=".9"/></g><path d="M-59 1270C143 1316 291 1485 224 1668S64 1953 230 2166L361 2500L204 2611C-20 2181-45 1958 64 1730S40 1476-95 1431Z" fill="url(#river)"/>
        <g transform="translate(1234 1810) rotate(6)"><path d="M10 10H429V682H10Z" fill="#7c7965" opacity=".09" filter="url(#shadow)"/><path d="M0 0H424L415 245L422 257L410 665L277 679L261 675L0 685Z" fill="url(#paper)" stroke="#afae97" stroke-opacity=".32"/>
        <path d="M19 11H412M20 659L409 646M29 2V673" fill="none" stroke="#b7b19c" stroke-opacity=".38"/>
        <path d="M391 610L410 665L357 668Z" fill="#fbf9ed" fill-opacity=".7" stroke="#b8b5a1" stroke-opacity=".4"/>
        <path d="M27 82Q2 81-4 75M27 220Q2 219-4 215M27 355Q2 354-4 349M27 488Q2 487-4 482M27 614Q2 613-4 608" fill="none" stroke="#8d947f" stroke-opacity=".5"/></g>
        <g font-family="serif" font-size="14" fill="#858d77" opacity=".5"><text x="1325" y="1766">月色沿着纸边，慢慢走远。</text></g><path d="M91.0 1460q36 17 69 12" fill="none" stroke="#8ba59c" stroke-opacity=".21"/><path d="M104.5 1487q36 17 69 12" fill="none" stroke="#8ba59c" stroke-opacity=".21"/><path d="M117.7 1514q36 17 69 12" fill="none" stroke="#8ba59c" stroke-opacity=".21"/><path d="M130.3 1541q36 17 69 12" fill="none" stroke="#8ba59c" stroke-opacity=".21"/><path d="M141.8 1568q36 17 69 12" fill="none" stroke="#8ba59c" stroke-opacity=".21"/><path d="M152.0 1595q36 17 69 12" fill="none" stroke="#8ba59c" stroke-opacity=".21"/><path d="M160.6 1622q36 17 69 12" fill="none" stroke="#8ba59c" stroke-opacity=".21"/><path d="M167.5 1649q36 17 69 12" fill="none" stroke="#8ba59c" stroke-opacity=".21"/><path d="M172.4 1676q36 17 69 12" fill="none" stroke="#8ba59c" stroke-opacity=".21"/><path d="M175.3 1703q36 17 69 12" fill="none" stroke="#8ba59c" stroke-opacity=".21"/><path d="M176.0 1730q36 17 69 12" fill="none" stroke="#8ba59c" stroke-opacity=".21"/><path d="M174.5 1757q36 17 69 12" fill="none" stroke="#8ba59c" stroke-opacity=".21"/><path d="M170.9 1784q36 17 69 12" fill="none" stroke="#8ba59c" stroke-opacity=".21"/><path d="M165.2 1811q36 17 69 12" fill="none" stroke="#8ba59c" stroke-opacity=".21"/><path d="M157.7 1838q36 17 69 12" fill="none" stroke="#8ba59c" stroke-opacity=".21"/><path d="M148.4 1865q36 17 69 12" fill="none" stroke="#8ba59c" stroke-opacity=".21"/><path d="M137.7 1892q36 17 69 12" fill="none" stroke="#8ba59c" stroke-opacity=".21"/><path d="M125.8 1919q36 17 69 12" fill="none" stroke="#8ba59c" stroke-opacity=".21"/><path d="M113.0 1946q36 17 69 12" fill="none" stroke="#8ba59c" stroke-opacity=".21"/><path d="M99.6 1973q36 17 69 12" fill="none" stroke="#8ba59c" stroke-opacity=".21"/><path d="M86.0 2000q36 17 69 12" fill="none" stroke="#8ba59c" stroke-opacity=".21"/><path d="M72.6 2027q36 17 69 12" fill="none" stroke="#8ba59c" stroke-opacity=".21"/><path d="M59.6 2054q36 17 69 12" fill="none" stroke="#8ba59c" stroke-opacity=".21"/><path d="M47.4 2081q36 17 69 12" fill="none" stroke="#8ba59c" stroke-opacity=".21"/><path d="M36.3 2108q36 17 69 12" fill="none" stroke="#8ba59c" stroke-opacity=".21"/></svg>